<?xml version="1.0" encoding="utf-8"?><svg xmlns="http://www.w3.org/2000/svg" xmlns:xlink="http://www.w3.org/1999/xlink" width="1366" height="657" preserveAspectRatio="xMidYMid" viewBox="0 0 1366 657" style="z-index:1;margin-right:-2px;display:block;background-repeat-y:initial;background-repeat-x:initial;background-color:rgb(255, 255, 255);animation-play-state:paused" ><g transform="" style="animation-play-state:paused" ><path id="path0" d="M 1260.2662639433504 443.1253682069847
c 0 20.017816231864945 -4.89797631205206 5.7497982793654625 -10.647774591417523 5.7497982793654625
S 1238.9707147605152 463.1431844388497 1238.9707147605152 443.1253682069847
s 4.89797631205206 -5.7497982793654625 10.647774591417523 -5.7497982793654625
S 1260.2662639433504 423.10755197511975 1260.2662639433504 443.1253682069847
z" fill="none" stroke="none" style="animation-play-state:paused" ></path>


<circle cx="0" cy="0" r="6.636207709795123" fill="#de9dd6" transform="translate(1239.030517578125 439.6769104003906)" style="animation-play-state:paused" ></circle>
<path id="path1" d="M 1068.8889257685055 288.6290554033385
c 0 30.58252974993728 -7.482959406899546 8.78434365157773 -16.267303058477275 8.78434365157773
S 1036.3543196515511 319.2115851532758 1036.3543196515511 288.6290554033385
s 7.482959406899546 -8.78434365157773 16.267303058477275 -8.78434365157773
S 1068.8889257685055 258.0465256534012 1068.8889257685055 288.6290554033385
z" fill="none" stroke="none" style="animation-play-state:paused" ></path>


<circle cx="0" cy="0" r="7.8866954919899435" fill="#e0ff77" transform="translate(1068.48828125 298.39111328125)" style="animation-play-state:paused" ></circle>
<path id="path2" d="M 1102.7753903512357 551.9260667418293
c 0 31.719898409595036 -7.761251738517934 9.111034649564532 -16.872286388082465 9.111034649564532
S 1069.0308175750706 583.6459651514244 1069.0308175750706 551.9260667418293
s 7.761251738517934 -9.111034649564532 16.872286388082465 -9.111034649564532
S 1102.7753903512357 520.2061683322343 1102.7753903512357 551.9260667418293
z" fill="none" stroke="none" style="animation-play-state:paused" ></path>


<circle cx="0" cy="0" r="4.620989905120926" fill="#de9dd6" transform="translate(1102.7635498046875 553.9781494140625)" style="animation-play-state:paused" ></circle>
<path id="path3" d="M 704.4050045787416 104.67750974500402
c 0 22.360654120299248 -5.471223880498751 6.422741077107231 -11.893964957605982 6.422741077107231
S 680.6170746635297 127.03816386530326 680.6170746635297 104.67750974500402
s 5.471223880498751 -6.422741077107231 11.893964957605982 -6.422741077107231
S 704.4050045787416 82.31685562470477 704.4050045787416 104.67750974500402
z" fill="none" stroke="none" style="animation-play-state:paused" ></path>


<circle cx="0" cy="0" r="7.644208965350321" fill="#51cacc" transform="translate(695.438232421875 97.292236328125)" style="animation-play-state:paused" ></circle>
<path id="path4" d="M 789.8009446491387 334.9386192173596
c 0 37.036017955096774 -9.062004393268358 10.638005157315032 -19.700009550583392 10.638005157315032
S 750.4009255479718 371.97463717245637 750.4009255479718 334.9386192173596
s 9.062004393268358 -10.638005157315032 19.700009550583392 -10.638005157315032
S 789.8009446491387 297.9026012622628 789.8009446491387 334.9386192173596
z" fill="none" stroke="none" style="animation-play-state:paused" ></path>


<circle cx="0" cy="0" r="6.245518484932514" fill="#51cacc" transform="translate(769.7898559570312 345.5843811035156)" style="animation-play-state:paused" ></circle>
<path id="path5" d="M 203.24587469500415 362.4237583270511
c 0 36.54095420882101 -8.940871774498756 10.495805996150716 -19.436677770649474 10.495805996150716
S 164.37251915370518 398.9647125358721 164.37251915370518 362.4237583270511
s 8.940871774498756 -10.495805996150716 19.436677770649474 -10.495805996150716
S 203.24587469500415 325.88280411823007 203.24587469500415 362.4237583270511
z" fill="none" stroke="none" style="animation-play-state:paused" ></path>


<circle cx="0" cy="0" r="7.849223811801136" fill="#9df871" transform="translate(173.03851318359375 345.6069641113281)" style="animation-play-state:paused" ></circle>
<path id="path6" d="M 1257.5166653456029 205.83815693059435
c 0 30.80275218576268 -7.536843619920655 8.84759903208077 -16.384442652001425 8.84759903208077
S 1224.7477800416002 236.64090911635702 1224.7477800416002 205.83815693059435
s 7.536843619920655 -8.84759903208077 16.384442652001425 -8.84759903208077
S 1257.5166653456029 175.03540474483168 1257.5166653456029 205.83815693059435
z" fill="none" stroke="none" style="animation-play-state:paused" ></path>


<circle cx="0" cy="0" r="4.343761268348013" fill="#de9dd6" transform="translate(1238.1717529296875 215.4287567138672)" style="animation-play-state:paused" ></circle>
<path id="path7" d="M 650.4804159616925 440.05562530385293
c 0 25.338697068736554 -6.199893963627028 7.278136392083904 -13.478030355710933 7.278136392083904
S 623.5243552502706 465.3943223725895 623.5243552502706 440.05562530385293
s 6.199893963627028 -7.278136392083904 13.478030355710933 -7.278136392083904
S 650.4804159616925 414.71692823511637 650.4804159616925 440.05562530385293
z" fill="none" stroke="none" style="animation-play-state:paused" ></path>


<circle cx="0" cy="0" r="7.289313753392392" fill="#9df871" transform="translate(637.474365234375 432.7524719238281)" style="animation-play-state:paused" ></circle>
<path id="path8" d="M 231.2185007068031 67.91570696501194
c 0 23.178973635392506 -5.6714509958939106 6.657790299527634 -12.329241295421545 6.657790299527634
S 206.56001811596 91.09468060040444 206.56001811596 67.91570696501194
s 5.6714509958939106 -6.657790299527634 12.329241295421545 -6.657790299527634
S 231.2185007068031 44.736733329619426 231.2185007068031 67.91570696501194
z" fill="none" stroke="none" style="animation-play-state:paused" ></path>


<circle cx="0" cy="0" r="4.596220485664493" fill="#9df871" transform="translate(206.78021240234375 74.44915008544922)" style="animation-play-state:paused" ></circle>
<path id="path9" d="M 331.21762096700377 466.35913674123896
c 0 22.224503222827753 -5.437910363032322 6.3836339044292485 -11.82154426746157 6.3836339044292485
S 307.5745324320807 488.5836399640667 307.5745324320807 466.35913674123896
s 5.437910363032322 -6.3836339044292485 11.82154426746157 -6.3836339044292485
S 331.21762096700377 444.1346335184112 331.21762096700377 466.35913674123896
z" fill="none" stroke="none" style="animation-play-state:paused" ></path>


<circle cx="0" cy="0" r="7.238035639347363" fill="#51cacc" transform="translate(327.0818176269531 455.2273864746094)" style="animation-play-state:paused" ></circle>
<path id="path10" d="M 115.67509345024816 116.32656923920206
c 0 20.069120684009604 -4.91052952906618 5.764534664555951 -10.67506419362213 5.764534664555951
S 94.32496506300389 136.39568992321165 94.32496506300389 116.32656923920206
s 4.91052952906618 -5.764534664555951 10.67506419362213 -5.764534664555951
S 115.67509345024816 96.25744855519245 115.67509345024816 116.32656923920206
z" fill="none" stroke="none" style="animation-play-state:paused" ></path>


<circle cx="0" cy="0" r="6.983493658697949" fill="#ff708e" transform="translate(101.5413589477539 123.51632690429688)" style="animation-play-state:paused" ></circle>
<path id="path11" d="M 718.8256314472985 560.242007399518
c 0 34.39061233935505 -8.414724295799639 9.87815460811262 -18.29287890391226 9.87815460811262
S 682.2398736394739 594.632619738873 682.2398736394739 560.242007399518
s 8.414724295799639 -9.87815460811262 18.29287890391226 -9.87815460811262
S 718.8256314472985 525.851395060163 718.8256314472985 560.242007399518
z" fill="none" stroke="none" style="animation-play-state:paused" ></path>


<circle cx="0" cy="0" r="7.540837914078185" fill="#9df871" transform="translate(694.980224609375 548.1913452148438)" style="animation-play-state:paused" ></circle>
<path id="path12" d="M 347.61650374192703 239.7268478040647
c 0 23.94448418286143 -5.858756768146946 6.877670988694241 -12.736427756841186 6.877670988694241
S 322.1436482282447 263.67133198692613 322.1436482282447 239.7268478040647
s 5.858756768146946 -6.877670988694241 12.736427756841186 -6.877670988694241
S 347.61650374192703 215.78236362120327 347.61650374192703 239.7268478040647
z" fill="none" stroke="none" style="animation-play-state:paused" ></path>


<circle cx="0" cy="0" r="6.407931781878242" fill="#de9dd6" transform="translate(333.0624694824219 246.97267150878906)" style="animation-play-state:paused" ></circle>
<path id="path13" d="M 923.4572521582697 105.36608177616576
c 0 26.551922715265047 -6.496747047352085 7.626616099065493 -14.123363146417578 7.626616099065493
S 895.2105258654346 131.9180044914308 895.2105258654346 105.36608177616576
s 6.496747047352085 -7.626616099065493 14.123363146417578 -7.626616099065493
S 923.4572521582697 78.8141590609007 923.4572521582697 105.36608177616576
z" fill="none" stroke="none" style="animation-play-state:paused" ></path>


<circle cx="0" cy="0" r="4.027870690186804" fill="#51cacc" transform="translate(907.6663208007812 113.27598571777344)" style="animation-play-state:paused" ></circle>
<path id="path14" d="M 1357.7072529712107 434.9637887310914
c 0 27.37597929983105 -6.698377913788448 7.863313203142962 -14.56169111693141 7.863313203142962
S 1328.583870737348 462.33976803092247 1328.583870737348 434.9637887310914
s 6.698377913788448 -7.863313203142962 14.56169111693141 -7.863313203142962
S 1357.7072529712107 407.5878094312604 1357.7072529712107 434.9637887310914
z" fill="none" stroke="none" style="animation-play-state:paused" ></path>


<circle cx="0" cy="0" r="7.199444995509243" fill="#e0ff77" transform="translate(1341.46435546875 443.1069641113281)" style="animation-play-state:paused" ></circle>
<path id="path15" d="M 296.92701725005685 644.253287245523
c 0 36.73015631275312 -8.987165906311931 10.550151281322703 -19.537317187634635 10.550151281322703
S 257.85238287478757 680.9834435582761 257.85238287478757 644.253287245523
s 8.987165906311931 -10.550151281322703 19.537317187634635 -10.550151281322703
S 296.92701725005685 607.5231309327698 296.92701725005685 644.253287245523
z" fill="none" stroke="none" style="animation-play-state:paused" ></path>


<circle cx="0" cy="0" r="6.833135551165933" fill="#e0ff77" transform="translate(264.5711975097656 662.732666015625)" style="animation-play-state:paused" ></circle>
<path id="path16" d="M 27.839262599192786 343.81767696401613
c 0 36.484581709751005 -8.927078503449712 10.479613895354012 -19.406692398803724 10.479613895354012
S -10.974122198414664 380.30225867376714 -10.974122198414664 343.81767696401613
s 8.927078503449712 -10.479613895354012 19.406692398803724 -10.479613895354012
S 27.839262599192786 307.3330952542651 27.839262599192786 343.81767696401613
z" fill="none" stroke="none" style="animation-play-state:paused" ></path>


<circle cx="0" cy="0" r="6.751673502370236" fill="#9df871" transform="translate(-10.895023345947266 349.2633361816406)" style="animation-play-state:paused" ></circle>
<path id="path17" d="M 259.2783766819455 575.1462844616074
c 0 27.205157170761243 -6.656581009867112 7.814247272452698 -14.47082828231981 7.814247272452698
S 230.33672011730587 602.3514416323686 230.33672011730587 575.1462844616074
s 6.656581009867112 -7.814247272452698 14.47082828231981 -7.814247272452698
S 259.2783766819455 547.9411272908461 259.2783766819455 575.1462844616074
z" fill="none" stroke="none" style="animation-play-state:paused" ></path>


<circle cx="0" cy="0" r="7.3606188966557" fill="#ff708e" transform="translate(240.02133178710938 565.3274536132812)" style="animation-play-state:paused" ></circle>
<path id="path18" d="M 66.05208383555427 439.261823298855
c 0 29.887169878152417 -7.31281816167559 8.584612624575694 -15.897430786251284 8.584612624575694
S 34.257222263051695 469.1489931770074 34.257222263051695 439.261823298855
s 7.31281816167559 -8.584612624575694 15.897430786251284 -8.584612624575694
S 66.05208383555427 409.3746534207026 66.05208383555427 439.261823298855
z" fill="none" stroke="none" style="animation-play-state:paused" ></path>


<circle cx="0" cy="0" r="4.766600847571331" fill="#de9dd6" transform="translate(45.00172424316406 449.9707336425781)" style="animation-play-state:paused" ></circle>
<path id="path19" d="M 473.778166005893 601.2877524111476
c 0 30.16800088761881 -7.381532132076942 8.66527685069902 -16.04680898277596 8.66527685069902
S 441.68454804034104 631.4557532987665 441.68454804034104 601.2877524111476
s 7.381532132076942 -8.66527685069902 16.04680898277596 -8.66527685069902
S 473.778166005893 571.1197515235287 473.778166005893 601.2877524111476
z" fill="none" stroke="none" style="animation-play-state:paused" ></path>


<circle cx="0" cy="0" r="4.890716067451898" fill="#9df871" transform="translate(451.1709899902344 589.4078369140625)" style="animation-play-state:paused" ></circle>
<path id="path20" d="M 226.33310852306357 491.9488066218129
c 0 37.44732484185728 -9.162643312369333 10.756146497129219 -19.918789809498552 10.756146497129219
S 186.49552890406648 529.3961314636701 186.49552890406648 491.9488066218129
s 9.162643312369333 -10.756146497129219 19.918789809498552 -10.756146497129219
S 226.33310852306357 454.5014817799556 226.33310852306357 491.9488066218129
z" fill="none" stroke="none" style="animation-play-state:paused" ></path>


<circle cx="0" cy="0" r="5.209445859656978" fill="#51cacc" transform="translate(202.0916748046875 503.9804382324219)" style="animation-play-state:paused" ></circle>
<path id="path21" d="M 802.0654622424044 259.1141416388716
c 0 34.33444958544051 -8.400982345373741 9.862022753264826 -18.263005098638565 9.862022753264826
S 765.5394520451272 293.4485912243121 765.5394520451272 259.1141416388716
s 8.400982345373741 -9.862022753264826 18.263005098638565 -9.862022753264826
S 802.0654622424044 224.77969205343112 802.0654622424044 259.1141416388716
z" fill="none" stroke="none" style="animation-play-state:paused" ></path>


<circle cx="0" cy="0" r="7.131681051998438" fill="#de9dd6" transform="translate(785.9484252929688 248.88912963867188)" style="animation-play-state:paused" ></circle>
<path id="path22" d="M 400.8497815438329 239.76520085733821
c 0 28.261187796624853 -6.914971482152889 8.117575218179478 -15.032546700332368 8.117575218179478
S 370.7846881431681 268.02638865396307 370.7846881431681 239.76520085733821
s 6.914971482152889 -8.117575218179478 15.032546700332368 -8.117575218179478
S 400.8497815438329 211.50401306071336 400.8497815438329 239.76520085733821
z" fill="none" stroke="none" style="animation-play-state:paused" ></path>


<circle cx="0" cy="0" r="6.2646621562845475" fill="#9df871" transform="translate(382.278564453125 249.0031280517578)" style="animation-play-state:paused" ></circle>
<path id="path23" d="M 915.6586025217724 217.3881443656214
c 0 20.201912557872895 -4.94302115777741 5.802677011303916 -10.745698169081326 5.802677011303916
S 894.1672061836097 237.5900569234943 894.1672061836097 217.3881443656214
s 4.94302115777741 -5.802677011303916 10.745698169081326 -5.802677011303916
S 915.6586025217724 197.1862318077485 915.6586025217724 217.3881443656214
z" fill="none" stroke="none" style="animation-play-state:paused" ></path>


<circle cx="0" cy="0" r="7.739792304581866" fill="#9df871" transform="translate(913.8755493164062 228.06564331054688)" style="animation-play-state:paused" ></circle>
<path id="path24" d="M 428.3896613897286 402.69522513695193
c 0 32.652475993971414 -7.9894356155461965 9.378902679119449 -17.368338294665648 9.378902679119449
S 393.6529848003973 435.3477011309233 393.6529848003973 402.69522513695193
s 7.9894356155461965 -9.378902679119449 17.368338294665648 -9.378902679119449
S 428.3896613897286 370.04274914298054 428.3896613897286 402.69522513695193
z" fill="none" stroke="none" style="animation-play-state:paused" ></path>


<circle cx="0" cy="0" r="4.206016322416145" fill="#de9dd6" transform="translate(405.23553466796875 390.8794860839844)" style="animation-play-state:paused" ></circle>
<path id="path25" d="M 447.6269777454751 544.3406194068697
c 0 28.374834580757934 -6.942778674015238 8.150218443409194 -15.092997117424432 8.150218443409194
S 417.4409835106262 572.7154539876276 417.4409835106262 544.3406194068697
s 6.942778674015238 -8.150218443409194 15.092997117424432 -8.150218443409194
S 447.6269777454751 515.9657848261118 447.6269777454751 544.3406194068697
z" fill="none" stroke="none" style="animation-play-state:paused" ></path>


<circle cx="0" cy="0" r="4.877171471279329" fill="#51cacc" transform="translate(443.5818176269531 529.40966796875)" style="animation-play-state:paused" ></circle>
<path id="path26" d="M 620.2067022806445 249.25293326226296
c 0 35.42106100309088 -8.666855351820105 10.174134543440996 -18.840989895261103 10.174134543440996
S 582.5247224901223 284.6739942653538 582.5247224901223 249.25293326226296
s 8.666855351820105 -10.174134543440996 18.840989895261103 -10.174134543440996
S 620.2067022806445 213.8318722591721 620.2067022806445 249.25293326226296
z" fill="none" stroke="none" style="animation-play-state:paused" ></path>


<circle cx="0" cy="0" r="7.352056724470119" fill="#9df871" transform="translate(592.2695922851562 264.39105224609375)" style="animation-play-state:paused" ></circle>
<path id="path27" d="M 653.745164704822 36.46601367260593
c 0 28.909045473514027 -7.0734898499023675 8.303661997711476 -15.377151847613844 8.303661997711476
S 622.9908610095943 65.37505914611995 622.9908610095943 36.46601367260593
s 7.0734898499023675 -8.303661997711476 15.377151847613844 -8.303661997711476
S 653.745164704822 7.556968199091905 653.745164704822 36.46601367260593
z" fill="none" stroke="none" style="animation-play-state:paused" ></path>


<circle cx="0" cy="0" r="7.293346109382834" fill="#51cacc" transform="translate(626.5289916992188 51.85528564453125)" style="animation-play-state:paused" ></circle>
<path id="path28" d="M 1007.110764501859 168.81479464459034
c 0 19.39566461418629 -4.74574772474771 5.571095155138616 -10.316842879886325 5.571095155138616
S 986.4770787420864 188.21045925877664 986.4770787420864 168.81479464459034
s 4.74574772474771 -5.571095155138616 10.316842879886325 -5.571095155138616
S 1007.110764501859 149.41913003040403 1007.110764501859 168.81479464459034
z" fill="none" stroke="none" style="animation-play-state:paused" ></path>


<circle cx="0" cy="0" r="5.040205474760767" fill="#9df871" transform="translate(998.1369018554688 162.9938201904297)" style="animation-play-state:paused" ></circle>
<path id="path29" d="M 783.2428154330526 548.0795386631193
c 0 32.85378799118968 -8.03869280635492 9.436726337894909 -17.475419144249827 9.436726337894909
S 748.2919771445529 580.933326654309 748.2919771445529 548.0795386631193
s 8.03869280635492 -9.436726337894909 17.475419144249827 -9.436726337894909
S 783.2428154330526 515.2257506719295 783.2428154330526 548.0795386631193
z" fill="none" stroke="none" style="animation-play-state:paused" ></path>


<circle cx="0" cy="0" r="4.76580996967193" fill="#9df871" transform="translate(782.0443725585938 533.3599243164062)" style="animation-play-state:paused" ></circle></g></svg>